<svg width="102" height="18" xmlns="http://www.w3.org/2000/svg"><g fill-rule="nonzero" fill="none"><path d="M45.838 4.673c-.934 0-1.69.76-1.69 1.697v.133h3.307v9.786h2.321V6.503h3.315v-1.83h-7.253zM91.707 9.632h-.763V6.503h.763c1.16 0 2.453.117 2.453 1.516 0 1.448-1.306 1.614-2.453 1.614v-.001zm3.713 2.116c-.233-.517-.595-1.148-1.226-1.199v-.033a2.654 2.654 0 0 0 2.386-2.698c0-3.227-2.968-3.145-5.453-3.145h-.814a1.694 1.694 0 0 0-1.688 1.697v9.928h2.319v-4.834h.746c.978 0 1.276.333 1.609 1.196l1.391 3.629h2.579l-1.85-4.54zM100.36 4.673c-.933 0-1.69.76-1.69 1.697v9.928h2.32V4.685l-.63-.012zM73.761 4.673c-.933 0-1.69.76-1.69 1.697v2.997h-4.64V4.673h-.629c-.933 0-1.69.76-1.69 1.697v9.928h2.32v-5.1h4.643v5.09h2.32V4.676l-.634-.002zM30.282 4.673c-.948.14-1.74.792-2.064 1.697L26 13.477h-.034l-2.765-8.804h-2.013c-.933 0-1.69.76-1.69 1.697v9.928h2.222V6.745l.034-.034 3.115 9.587h2.22l3.118-9.587h.034v9.578h2.22V4.675l-2.18-.002zM37.53 11.795l1.679-4.793h.034l1.679 4.793H37.53zm3.05-7.118h-1.212a2.602 2.602 0 0 0-1.99 1.499l-.072.187-3.85 9.928h2.402l1.011-2.664h4.69l.995 2.664h2.57L40.58 4.677zM56.185 11.795l1.679-4.793h.033l1.68 4.793h-3.392zm3.05-7.118h-1.213a2.602 2.602 0 0 0-1.988 1.499 1.878 1.878 0 0 0-.073.187l-3.85 9.928h2.404l1.011-2.664h4.69l.995 2.664h2.569L59.235 4.677zM79.795 11.795l1.679-4.793h.033l1.68 4.793h-3.392zm3.05-7.118h-1.213a2.602 2.602 0 0 0-1.988 1.499 1.9 1.9 0 0 0-.073.187l-3.85 9.928h2.402l1.011-2.664h4.69l.995 2.664h2.562L82.845 4.677z" fill="#2B2F32"/><path d="M15.799 8.646h-.993a.708.708 0 0 0-.69.562c0 .034 0 .068-.013.101-.013.034 0 .038 0 .057-.383 2.824-2.91 4.846-5.738 4.59-2.827-.256-4.954-2.7-4.828-5.546.126-2.848 2.46-5.092 5.299-5.095V1.71A.71.71 0 0 0 8.134 1C4.018 1.38.948 4.976 1.201 9.118c.253 4.142 3.738 7.334 7.87 7.206 4.131-.128 7.415-3.528 7.414-7.678H15.8z" fill="#EB0029"/><path d="M4.875 8.646a3.97 3.97 0 0 0 3.962 3.893 3.97 3.97 0 0 0 3.962-3.893h-1.59a.996.996 0 0 0-.858.58 1.618 1.618 0 0 1-2.047.959 1.629 1.629 0 0 1 .532-3.167h7.65V5.38a.71.71 0 0 0-.71-.711h-6.94a3.97 3.97 0 0 0-3.961 3.978" fill="#EB0029"/></g></svg>