<svg width="170" height="170" xmlns="http://www.w3.org/2000/svg"><g fill="none" fill-rule="evenodd"><circle fill="#F4F4F4" cx="85" cy="85" r="85"/><g transform="scale(-1 1) rotate(-22 66.104 312.084)"><rect fill="#A7A7A7" x="22.189" y="12.426" width="1.775" height="9.763" rx=".888"/><g transform="translate(.794 10.878)" fill="#A7A7A7"><rect x="1.479" width="1" height="3.55" rx=".5"/><rect transform="rotate(90 1.775 1.98)" x="1.275" y=".204" width="1" height="3.55" rx=".5"/></g><g transform="rotate(-27 23.37 -69.018)" fill="#A7A7A7"><rect x="2.219" width="1" height="5.325" rx=".5"/><rect transform="rotate(90 2.663 2.719)" x="2.163" y=".056" width="1" height="5.325" rx=".5"/></g><rect fill="#A7A7A7" transform="rotate(-30 12.325 22.835)" x="11.438" y="20.172" width="1.775" height="5.325" rx=".888"/><rect fill="#A7A7A7" transform="rotate(43 34.238 22.486)" x="33.35" y="18.936" width="1.775" height="7.101" rx=".888"/><circle stroke="#979797" cx="14.645" cy="3.107" r="2.219"/><circle stroke="#979797" cx="3.071" cy="27.384" r="1.331"/></g><path d="M88.34 99.453a.945.945 0 0 0-1.334 0l-1.657 1.669-2.2-2.215a17.153 17.153 0 0 0 4.347-11.432c0-9.459-7.64-17.153-17.032-17.153S53.42 78.016 53.42 87.475c0 9.458 7.64 17.153 17.032 17.153 4.357 0 8.329-1.659 11.352-4.378l2.199 2.216-1.657 1.669a.958.958 0 0 0-.282.672.96.96 0 0 0 .282.671l14.791 14.897a3.048 3.048 0 0 0 2.178.912c.824 0 1.595-.324 2.18-.912l1.636-1.649a3.092 3.092 0 0 0 .907-2.194c0-.829-.324-1.606-.907-2.194L88.34 99.453z" fill="#A7A7A7"/><path d="M55.318 87.475c0-8.409 6.796-15.253 15.146-15.253 8.349 0 15.145 6.844 15.145 15.253 0 8.409-6.796 15.253-15.145 15.253-8.35 0-15.146-6.844-15.146-15.253z" fill="#FFF"/><path d="M70.453 77.355c-5.545 0-10.059 4.545-10.059 10.13 0 .525.428.955.949.955.521 0 .948-.43.948-.955 0-4.535 3.66-8.22 8.162-8.22a.956.956 0 0 0 0-1.91z" fill="#E3E3E3"/><path d="M101.798 117.393l-1.637 1.648c-.23.231-.521.357-.845.357a1.17 1.17 0 0 1-.843-.357l-14.125-14.224 3.325-3.349 14.125 14.225c.229.23.354.525.354.85 0 .325-.136.63-.354.85z" fill="#CECECE"/></g></svg>